<svg width="1280" height="760" viewBox="0 0 1280 760" fill="none" xmlns="http://www.w3.org/2000/svg">
  <rect width="1280" height="760" fill="#F6F8FB"/>
  <rect x="0" y="0" width="1280" height="760" fill="url(#g)"/>
  <rect x="80" y="92" width="1120" height="576" rx="34" fill="#FFFFFF" opacity="0.55"/>
  <rect x="146" y="170" width="988" height="96" rx="24" fill="#0F172A" opacity="0.8"/>
  <rect x="186" y="206" width="230" height="16" rx="8" fill="#FFFFFF"/>
  <rect x="860" y="204" width="190" height="20" rx="10" fill="#14B8A6"/>
  <rect x="164" y="320" width="220" height="210" rx="24" fill="#FFFFFF"/>
  <rect x="424" y="320" width="220" height="210" rx="24" fill="#FFFFFF"/>
  <rect x="684" y="320" width="220" height="210" rx="24" fill="#FFFFFF"/>
  <rect x="944" y="320" width="160" height="210" rx="24" fill="#FFFFFF"/>
  <rect x="200" y="452" width="52" height="44" rx="10" fill="#2563EB"/>
  <rect x="274" y="410" width="52" height="86" rx="10" fill="#14B8A6"/>
  <path d="M468 468 L514 420 L560 446 L604 382" stroke="#F59E0B" stroke-width="12" stroke-linecap="round"/>
  <circle cx="794" cy="426" r="58" fill="#E0F2FE"/>
  <path d="M765 430 L786 451 L827 392" stroke="#2563EB" stroke-width="12" stroke-linecap="round" stroke-linejoin="round"/>
  <rect x="986" y="375" width="76" height="16" rx="8" fill="#CBD5E1"/>
  <rect x="986" y="420" width="76" height="16" rx="8" fill="#CBD5E1"/>
  <rect x="986" y="465" width="76" height="16" rx="8" fill="#CBD5E1"/>
  <defs>
    <linearGradient id="g" x1="0" y1="760" x2="1280" y2="0">
      <stop stop-color="#E0F2FE"/>
      <stop offset="0.55" stop-color="#FFFFFF"/>
      <stop offset="1" stop-color="#FDF2F8"/>
    </linearGradient>
  </defs>
</svg>
