<svg width="1280" height="760" viewBox="0 0 1280 760" fill="none" xmlns="http://www.w3.org/2000/svg">
  <rect width="1280" height="760" fill="#EDF6FF"/>
  <rect width="1280" height="760" fill="url(#g)"/>
  <rect x="130" y="135" width="1020" height="520" rx="32" fill="#FFFFFF" opacity="0.42"/>
  <rect x="196" y="210" width="420" height="270" rx="24" fill="#FFFFFF"/>
  <rect x="230" y="250" width="168" height="16" rx="8" fill="#0F172A"/>
  <rect x="230" y="296" width="300" height="12" rx="6" fill="#CBD5E1"/>
  <rect x="230" y="330" width="250" height="12" rx="6" fill="#CBD5E1"/>
  <path d="M250 430 C310 340 360 410 420 300 C470 220 520 260 570 190" stroke="#2563EB" stroke-width="14" stroke-linecap="round"/>
  <rect x="690" y="210" width="360" height="270" rx="24" fill="#0F172A" opacity="0.72"/>
  <rect x="730" y="260" width="90" height="140" rx="12" fill="#14B8A6"/>
  <rect x="850" y="310" width="90" height="90" rx="12" fill="#F59E0B"/>
  <rect x="970" y="240" width="46" height="160" rx="12" fill="#38BDF8"/>
  <rect x="250" y="545" width="780" height="34" rx="17" fill="#CBD5E1"/>
  <defs>
    <linearGradient id="g" x1="1280" y1="0" x2="0" y2="760">
      <stop stop-color="#E0F2FE"/>
      <stop offset="0.5" stop-color="#F8FAFC"/>
      <stop offset="1" stop-color="#ECFDF5"/>
    </linearGradient>
  </defs>
</svg>
