<svg width="1280" height="760" viewBox="0 0 1280 760" fill="none" xmlns="http://www.w3.org/2000/svg">
  <rect width="1280" height="760" fill="#EAF3F8"/>
  <rect y="0" width="1280" height="760" fill="url(#g)"/>
  <rect x="0" y="0" width="1280" height="760" fill="#0F172A" opacity="0.12"/>
  <rect x="120" y="520" width="1040" height="120" rx="20" fill="#F8FAFC"/>
  <rect x="740" y="260" width="330" height="230" rx="18" fill="#DCEAF2"/>
  <rect x="790" y="300" width="230" height="150" rx="10" fill="#F8FAFC"/>
  <rect x="165" y="460" width="340" height="70" rx="12" fill="#FFFFFF"/>
  <rect x="210" y="492" width="250" height="10" rx="5" fill="#2563EB"/>
  <circle cx="435" cy="268" r="52" fill="#0F172A" opacity="0.38"/>
  <rect x="390" y="318" width="90" height="160" rx="44" fill="#0F172A" opacity="0.38"/>
  <circle cx="548" cy="288" r="44" fill="#0F172A" opacity="0.3"/>
  <rect x="510" y="330" width="78" height="145" rx="39" fill="#0F172A" opacity="0.3"/>
  <circle cx="650" cy="276" r="48" fill="#0F172A" opacity="0.32"/>
  <rect x="610" y="322" width="84" height="154" rx="42" fill="#0F172A" opacity="0.32"/>
  <rect x="94" y="86" width="1092" height="16" rx="8" fill="#FFFFFF" opacity="0.65"/>
  <rect x="94" y="120" width="1092" height="220" rx="22" fill="#FFFFFF" opacity="0.28"/>
  <defs>
    <linearGradient id="g" x1="0" y1="0" x2="1280" y2="760">
      <stop stop-color="#DDF7FF"/>
      <stop offset="0.55" stop-color="#F8FAFC"/>
      <stop offset="1" stop-color="#D7F0EA"/>
    </linearGradient>
  </defs>
</svg>
