<svg width="520" height="340" viewBox="0 0 520 340" fill="none" xmlns="http://www.w3.org/2000/svg">
  <rect width="520" height="340" rx="24" fill="#F8FAFC"/>
  <rect x="138" y="28" width="244" height="284" rx="18" fill="#FFFFFF" stroke="#DBE4EF" stroke-width="2"/>
  <rect x="166" y="58" width="132" height="14" rx="7" fill="#0F172A"/>
  <rect x="166" y="92" width="188" height="8" rx="4" fill="#CBD5E1"/>
  <rect x="166" y="112" width="158" height="8" rx="4" fill="#CBD5E1"/>
  <circle cx="260" cy="176" r="48" fill="#EFF6FF"/>
  <path d="M236 180 L253 197 L286 150" stroke="#14B8A6" stroke-width="10" stroke-linecap="round" stroke-linejoin="round"/>
  <rect x="166" y="248" width="188" height="10" rx="5" fill="#2563EB"/>
  <rect x="166" y="272" width="122" height="10" rx="5" fill="#F59E0B"/>
  <rect x="74" y="96" width="72" height="72" rx="18" fill="#ECFDF5" stroke="#A7F3D0"/>
  <rect x="374" y="146" width="78" height="78" rx="18" fill="#FFF7ED" stroke="#FED7AA"/>
  <rect x="80" y="246" width="80" height="48" rx="14" fill="#EFF6FF" stroke="#BFDBFE"/>
  <path d="M96 132 H124" stroke="#14B8A6" stroke-width="8" stroke-linecap="round"/>
  <path d="M413 170 V201" stroke="#F59E0B" stroke-width="8" stroke-linecap="round"/>
  <path d="M100 270 H140" stroke="#2563EB" stroke-width="8" stroke-linecap="round"/>
</svg>
