<svg width="520" height="340" viewBox="0 0 520 340" fill="none" xmlns="http://www.w3.org/2000/svg">
  <rect width="520" height="340" rx="24" fill="#F8FAFC"/>
  <rect x="30" y="30" width="460" height="280" rx="18" fill="#FFFFFF" stroke="#DBE4EF" stroke-width="2"/>
  <rect x="58" y="58" width="145" height="16" rx="8" fill="#0F172A"/>
  <rect x="58" y="94" width="404" height="1" fill="#DBE4EF"/>
  <rect x="58" y="124" width="86" height="12" rx="6" fill="#64748B"/>
  <rect x="166" y="116" width="112" height="28" rx="8" fill="#2563EB"/>
  <rect x="58" y="170" width="104" height="12" rx="6" fill="#64748B"/>
  <rect x="226" y="162" width="138" height="28" rx="8" fill="#14B8A6"/>
  <rect x="58" y="216" width="72" height="12" rx="6" fill="#64748B"/>
  <rect x="338" y="208" width="96" height="28" rx="8" fill="#E11D48"/>
  <rect x="58" y="262" width="112" height="12" rx="6" fill="#64748B"/>
  <rect x="182" y="254" width="252" height="28" rx="8" fill="#F59E0B"/>
  <path d="M278 130 L226 176 L338 222" stroke="#94A3B8" stroke-width="3" stroke-dasharray="7 7"/>
  <circle cx="278" cy="130" r="8" fill="#2563EB"/>
  <circle cx="226" cy="176" r="8" fill="#14B8A6"/>
  <circle cx="338" cy="222" r="8" fill="#E11D48"/>
  <rect x="180" y="58" width="282" height="8" rx="4" fill="#CBD5E1"/>
</svg>
